#!OML:ASF F:\VICON\USERDATA\INSTALL\rory3\rory3.ASF
:FULLY-SPECIFIED
:DEGREES
910
root 2.15869 18.3197 2.01176 -11.0218 -10.9753 -2.36861
lowerback 1.69129 0.0199801 -0.425188
upperback 1.2674 0.0204719 -0.110108
thorax 0.349033 0.00748143 0.125331
lowerneck -2.48379 -7.21865 -9.4189
upperneck 14.8379 -10.8583 11.1483
head 5.99579 -5.18363 4.35548
rclavicle -8.15017e-015 -1.07344e-014
rhumerus 29.7528 3.7739 -65.9499
rradius 42.9883
rwrist 25.6741
rhand -27.6378 -2.04319
rfingers 7.12502
rthumb -1.03608 -32.0204
lclavicle -8.15017e-015 -1.07344e-014
lhumerus -2.80262 -55.9301 87.4973
lradius 121.36
lwrist 29.0927
lhand -17.7866 37.581
lfingers 7.12502
lthumb 8.47633 67.3909
rfemur -5.51115 18.0686 19.2708
rtibia 32.2365
rfoot -14.1206 -1.1959
rtoes -8.11786
lfemur 4.90222 -9.05235 -8.56593
ltibia 41.0445
lfoot -10.7296 -4.93808
ltoes -26.0587
911
root 2.22779 18.3105 1.97756 -10.97 -10.8026 -2.06525
lowerback 1.2599 -0.0766748 -0.905419
upperback 1.39432 -0.108639 -0.163561
thorax 0.722202 -0.0619147 0.34061
lowerneck -2.14627 -7.16919 -9.74527
upperneck 14.402 -10.7758 11.3299
head 5.81975 -5.16797 4.48709
rclavicle 1.11319e-014 -2.22639e-014
rhumerus 30.8119 3.25195 -65.6848
rradius 42.0796
rwrist 25.7744
rhand -28.2077 -2.11831
rfingers 7.12502
rthumb -1.58655 -32.0922
lclavicle 1.11319e-014 -2.22639e-014
lhumerus -4.64461 -55.5228 88.6072
lradius 121.228
lwrist 27.9664
lhand -16.2449 36.9599
lfingers 7.12502
lthumb 9.96386 66.7041
rfemur -5.96541 17.9774 18.5758
rtibia 32.4929
rfoot -13.9707 -1.09152
rtoes -7.82203
lfemur 5.38387 -9.14424 -9.29538
ltibia 40.0076
lfoot -11.9767 -4.12776
ltoes -27.0675
912
root 2.30039 18.3044 1.95796 -11.0231 -10.4148 -1.53309
lowerback 0.834304 -0.133539 -1.50434
upperback 1.66233 -0.175639 -0.441727
thorax 1.23754 -0.103883 0.390124
lowerneck -2.4518 -7.30152 -9.60156
upperneck 14.2208 -10.93 11.3539
head 5.82749 -5.22511 4.44628
rclavicle 2.32578e-014 -3.97569e-016
rhumerus 31.8393 2.33849 -65.5467
rradius 41.3885
rwrist 25.4894
rhand -28.3821 -2.4153
rfingers 7.12502
rthumb -1.75498 -32.3878
lclavicle 2.32578e-014 -3.97569e-016
lhumerus -5.91667 -55.2987 89.0817
lradius 121.159
lwrist 27.2165
lhand -15.0386 37.0198
lfingers 7.12502
lthumb 11.1275 66.7047
rfemur -6.25049 17.6286 17.5988
rtibia 32.7893
rfoot -13.8961 -0.948473
rtoes -7.31944
lfemur 5.96376 -9.39411 -10.3613
ltibia 38.8856
lfoot -13.0003 -3.33152
ltoes -26.7794
913
root 2.37342 18.2983 1.92951 -11.0526 -10.099 -1.12292
lowerback 0.667207 -0.164634 -1.99907
upperback 1.79531 -0.208357 -0.682261
thorax 1.46972 -0.127446 0.419811
lowerneck -2.48146 -7.39498 -9.57906
upperneck 13.9136 -11.0594 11.5609
head 5.76189 -5.27835 4.49677
rclavicle -2.44505e-014 1.27222e-014
rhumerus 32.6265 1.50598 -65.3868
rradius 40.8553
rwrist 25.0947
rhand -28.0092 -2.52373
rfingers 7.12502
rthumb -1.39476 -32.4989
lclavicle -2.44505e-014 1.27222e-014
lhumerus -7.46381 -55.009 89.7544
lradius 121.143
lwrist 26.6613
lhand -13.926 36.8899
lfingers 7.12502
lthumb 12.2005 66.5141
rfemur -6.63056 17.2445 16.7767
rtibia 33.1248
rfoot -13.7765 -0.892288
rtoes -7.19784
lfemur 6.47454 -9.48608 -11.2142
ltibia 37.7863
lfoot -13.8416 -2.62566
ltoes -26.5814
914
root 2.44272 18.2941 1.88548 -11.0241 -9.96407 -0.888581
lowerback 0.652478 -0.151978 -2.38084
upperback 1.79224 -0.188575 -0.82277
thorax 1.47573 -0.121859 0.489654
lowerneck -2.04731 -7.41783 -9.70555
upperneck 13.4569 -11.1124 11.8511
head 5.57435 -5.31746 4.62338
rclavicle -1.11319e-014 1.66979e-014
rhumerus 33.1251 0.811172 -65.1822
rradius 40.4531
rwrist 24.9588
rhand -28.096 -2.55655
rfingers 7.12502
rthumb -1.47863 -32.5312
lclavicle -1.11319e-014 1.66979e-014
lhumerus -9.40021 -54.6843 90.7973
lradius 121.025
lwrist 25.5883
lhand -12.4945 35.8922
lfingers 7.12502
lthumb 13.5805 65.4292
rfemur -7.18178 17.0124 16.1956
rtibia 33.5002
rfoot -13.5868 -0.909972
rtoes -7.27653
lfemur 6.86488 -9.40923 -11.7941
ltibia 36.8024
lfoot -14.6203 -1.88674
ltoes -26.7762
915
root 2.51435 18.2876 1.83249 -10.8557 -9.88803 -0.820186
lowerback 0.647586 -0.124896 -2.56911
upperback 1.7308 -0.15184 -0.937746
thorax 1.41494 -0.104153 0.477604
lowerneck -1.58133 -7.45016 -9.72421
upperneck 13.0272 -11.175 12.0436
head 5.38036 -5.363 4.70219
rclavicle 5.06901e-015 3.18055e-015
rhumerus 33.4772 0.273908 -64.9033
rradius 40.1788
rwrist 25.1081
rhand -28.7085 -2.70357
rfingers 7.12502
rthumb -2.07021 -32.6733
lclavicle 5.06901e-015 3.18055e-015
lhumerus -11.2747 -54.2043 91.7156
lradius 120.942
lwrist 24.9779
lhand -11.1916 35.1382
lfingers 7.12502
lthumb 14.8359 64.5871
rfemur -7.90399 16.7683 15.7572
rtibia 33.9038
rfoot -13.3351 -0.949747
rtoes -7.38574
lfemur 6.96566 -9.25222 -12.1229
ltibia 35.9822
lfoot -15.3259 -1.24484
ltoes -26.6124
916
root 2.58565 18.2795 1.774 -10.6195 -9.71406 -0.856725
lowerback 0.651247 -0.132697 -2.71053
upperback 1.73521 -0.161068 -1.0215
thorax 1.41806 -0.110134 0.470843
lowerneck -1.48108 -7.51024 -9.71155
upperneck 12.7483 -11.2613 12.2165
head 5.2964 -5.40396 4.75276
rclavicle 2.03754e-014 -5.56597e-015
rhumerus 33.9289 -0.215667 -64.5177
rradius 39.9336
rwrist 25.2167
rhand -29.5254 -2.99852
rfingers 7.12502
rthumb -2.85916 -32.9591
lclavicle 2.03754e-014 -5.56597e-015
lhumerus -12.7197 -53.6041 92.1972
lradius 120.996
lwrist 25.1849
lhand -10.0761 34.533
lfingers 7.12502
lthumb 15.9104 63.8994
rfemur -8.65921 16.4395 15.4048
rtibia 34.3115
rfoot -12.9975 -1.0168
rtoes -7.71227
lfemur 6.84073 -9.10146 -12.2736
ltibia 35.3065
lfoot -16.0407 -0.817951
ltoes -25.9729
917
root 2.6555 18.2736 1.71532 -10.4554 -9.51882 -0.897269
lowerback 0.71234 -0.151053 -2.87371
upperback 1.81439 -0.184865 -1.09794
thorax 1.46634 -0.12492 0.48358
lowerneck -1.538 -7.55673 -9.70637
upperneck 12.5051 -11.3231 12.4156
head 5.24971 -5.42567 4.80846
rclavicle -8.44835e-015 9.54166e-015
rhumerus 34.4283 -0.600149 -63.985
rradius 39.6808
rwrist 25.0205
rhand -30.5925 -3.46164
rfingers 7.12502
rthumb -3.88959 -33.4059
lclavicle -8.44835e-015 9.54166e-015
lhumerus -13.9267 -52.9828 92.4134
lradius 121.049
lwrist 25.3721
lhand -9.24643 33.7455
lfingers 7.12502
lthumb 16.7092 63.0463
rfemur -9.31652 16.1517 15.0954
rtibia 34.7178
rfoot -12.6022 -1.12197
rtoes -7.94373
lfemur 6.7695 -9.0664 -12.481
ltibia 34.7118
lfoot -16.7205 -0.370975
ltoes -24.8606
918
root 2.73541 18.2722 1.65452 -10.3296 -9.40293 -1.02321
lowerback 0.83025 -0.12703 -2.77192
upperback 1.93351 -0.153602 -1.19848
thorax 1.52087 -0.108682 0.32378
lowerneck -1.58932 -7.64127 -9.62367
upperneck 12.208 -11.4343 12.6049
head 5.18678 -5.47 4.84471
rclavicle -4.96962e-015 -1.59028e-015
rhumerus 34.8632 -1.15895 -63.5802
rradius 39.4169
rwrist 25.2523
rhand -31.2059 -3.48487
rfingers 7.12502
rthumb -4.482 -33.4174
lclavicle -4.96962e-015 -1.59028e-015
lhumerus -14.9176 -52.2965 92.469
lradius 121.029
lwrist 25.4222
lhand -8.03581 33.8071
lfingers 7.12502
lthumb 17.8744 63.0057
rfemur -9.97946 15.8252 14.8626
rtibia 35.1452
rfoot -12.098 -1.1129
rtoes -8.48654
lfemur 6.7935 -9.06337 -12.6801
ltibia 34.1539
lfoot -17.3465 0.25305
ltoes -23.842
919
root 2.81643 18.2729 1.59555 -10.195 -9.31251 -1.04985
lowerback 0.866025 -0.0859666 -2.73942
upperback 2.03458 -0.0961204 -1.33874
thorax 1.60281 -0.0799944 0.161946
lowerneck -1.45591 -7.69737 -9.50879
upperneck 11.822 -11.5115 12.8003
head 5.05969 -5.50565 4.88876
rclavicle 2.52457e-014 1.98785e-014
rhumerus 35.1959 -1.87848 -63.4192
rradius 39.1181
rwrist 26.0062
rhand -31.199 -2.45325
rfingers 7.12502
rthumb -4.47531 -32.386
lclavicle 2.52457e-014 1.98785e-014
lhumerus -15.9558 -51.5187 92.5449
lradius 121.02
lwrist 25.7552
lhand -6.41531 33.9887
lfingers 7.12502
lthumb 19.4331 63.0376
rfemur -10.7255 15.4465 14.4815
rtibia 35.6053
rfoot -11.4965 -0.968475
rtoes -9.05013
lfemur 6.79969 -8.9594 -12.9644
ltibia 33.5915
lfoot -17.939 0.87639
ltoes -23.3417
920
root 2.89096 18.274 1.53708 -10.0691 -9.27935 -0.914887
lowerback 0.838127 -0.0536156 -2.96526
upperback 2.12738 -0.0473397 -1.46872
thorax 1.71337 -0.0600357 0.154908
lowerneck -1.48751 -7.74 -9.41318
upperneck 11.7013 -11.561 12.8151
head 5.02963 -5.52608 4.87311
rclavicle -3.97569e-014 1.82882e-014
rhumerus 35.5795 -2.42371 -63.2673
rradius 38.6907
rwrist 26.7372
rhand -31.4132 -1.83213
rfingers 7.12502
rthumb -4.68217 -31.7604
lclavicle -3.97569e-014 1.82882e-014
lhumerus -16.9705 -50.5376 92.5712
lradius 120.952
lwrist 26.3272
lhand -4.82434 33.8722
lfingers 7.12502
lthumb 20.9622 62.7594
rfemur -11.5333 15.116 13.9375
rtibia 36.1105
rfoot -10.7984 -0.762331
rtoes -9.36574
lfemur 6.74529 -8.81559 -13.3916
ltibia 33.0549
lfoot -18.5253 1.42903
ltoes -22.3399
921
root 2.96848 18.2806 1.47632 -10.0458 -9.28392 -0.753979
lowerback 0.965881 -0.0196609 -3.19802
upperback 2.25989 -0.00196351 -1.59112
thorax 1.77744 -0.0420803 0.159532
lowerneck -1.83907 -7.81668 -9.27964
upperneck 11.8529 -11.6511 12.7073
head 5.133 -5.55265 4.79439
rclavicle -4.60187e-014 4.77083e-015
rhumerus 36.0163 -2.79825 -62.9652
rradius 38.1664
rwrist 27.0954
rhand -31.8831 -1.74932
rfingers 7.12502
rthumb -5.13585 -31.6671
lclavicle -4.60187e-014 4.77083e-015
lhumerus -17.782 -49.4977 92.4174
lradius 120.853
lwrist 26.9711
lhand -4.03608 33.9882
lfingers 7.12502
lthumb 21.7193 62.7898
rfemur -12.2819 14.7986 13.3774
rtibia 36.6922
rfoot -10.0054 -0.472246
rtoes -9.69055
lfemur 6.75801 -8.8709 -13.9332
ltibia 32.533
lfoot -19.1122 2.03598
ltoes -20.6947
922
root 3.04961 18.2842 1.41092 -9.94434 -9.3311 -0.756538
lowerback 1.11476 -0.00547336 -3.24307
upperback 2.31662 0.0125979 -1.66324
thorax 1.75199 -0.0351586 0.11079
lowerneck -1.81908 -7.83108 -9.14649
upperneck 11.7554 -11.6556 12.6146
head 5.08722 -5.55625 4.74465
rclavicle -6.65929e-015 3.10104e-014
rhumerus 36.2781 -2.98973 -62.5546
rradius 37.7033
rwrist 27.09
rhand -32.3959 -1.86108
rfingers 7.12502
rthumb -5.63098 -31.7663
lclavicle -6.65929e-015 3.10104e-014
lhumerus -18.7655 -48.5137 92.3552
lradius 120.803
lwrist 27.552
lhand -3.65252 34.0312
lfingers 7.12502
lthumb 22.0876 62.7897
rfemur -13.1842 14.4806 12.9573
rtibia 37.3463
rfoot -9.08782 -0.0928264
rtoes -9.89099
lfemur 6.66843 -8.93826 -14.2829
ltibia 32.0805
lfoot -19.5962 2.58646
ltoes -19.236
923
root 3.12785 18.278 1.33878 -9.70487 -9.47229 -0.955393
lowerback 1.19367 0.00730427 -3.13132
upperback 2.30305 0.0257269 -1.6811
thorax 1.69315 -0.0257506 0.0301911
lowerneck -1.62468 -7.81779 -9.11555
upperneck 11.664 -11.6465 12.6507
head 5.02517 -5.55849 4.76061
rclavicle -4.77083e-015 -4.37326e-014
rhumerus 36.3747 -3.05076 -62.0997
rradius 37.3147
rwrist 26.9212
rhand -32.7375 -2.37251
rfingers 7.12502
rthumb -5.96076 -32.2687
lclavicle -4.77083e-015 -4.37326e-014
lhumerus -19.8466 -47.5038 92.3464
lradius 120.658
lwrist 27.6512
lhand -3.04413 33.8957
lfingers 7.12502
lthumb 22.6716 62.584
rfemur -14.2957 14.1931 12.7355
rtibia 38.0236
rfoot -8.00641 0.313173
rtoes -10.0245
lfemur 6.46596 -8.72904 -14.3032
ltibia 31.6582
lfoot -20.0075 3.18473
ltoes -18.6113
